<svg xmlns="http://www.w3.org/2000/svg" xmlns:xlink="http://www.w3.org/1999/xlink" width="500" zoomAndPan="magnify" viewBox="0 0 375 374.999991" height="500" preserveAspectRatio="xMidYMid meet" version="1.2"><defs><clipPath id="f0c8a889af"><path d="M 172 122.605469 L 220.859375 122.605469 L 220.859375 167.605469 L 172 167.605469 Z M 172 122.605469 "/></clipPath><clipPath id="50bf2583cc"><path d="M 163.4375 131 L 180 131 L 180 158 L 163.4375 158 Z M 163.4375 131 "/></clipPath><clipPath id="e456d2ad37"><path d="M 176.359375 159.886719 L 185.84375 159.886719 L 185.84375 169.371094 L 176.359375 169.371094 Z M 176.359375 159.886719 "/></clipPath><clipPath id="cd4cfbb731"><path d="M 181.101562 159.886719 C 178.484375 159.886719 176.359375 162.007812 176.359375 164.628906 C 176.359375 167.246094 178.484375 169.371094 181.101562 169.371094 C 183.722656 169.371094 185.84375 167.246094 185.84375 164.628906 C 185.84375 162.007812 183.722656 159.886719 181.101562 159.886719 Z M 181.101562 159.886719 "/></clipPath><clipPath id="225d96d13e"><path d="M 192.757812 159.886719 L 202.242188 159.886719 L 202.242188 169.371094 L 192.757812 169.371094 Z M 192.757812 159.886719 "/></clipPath><clipPath id="bdc83e62d6"><path d="M 197.5 159.886719 C 194.882812 159.886719 192.757812 162.007812 192.757812 164.628906 C 192.757812 167.246094 194.882812 169.371094 197.5 169.371094 C 200.117188 169.371094 202.242188 167.246094 202.242188 164.628906 C 202.242188 162.007812 200.117188 159.886719 197.5 159.886719 Z M 197.5 159.886719 "/></clipPath></defs><g id="ef9f3ceaf5"><g style="fill:#202020;fill-opacity:1;"><g transform="translate(159.528728, 217.507799)"><path style="stroke:none" d="M 5.640625 0.171875 C 4.691406 0.171875 3.859375 0 3.140625 -0.34375 C 2.421875 -0.6875 1.859375 -1.171875 1.453125 -1.796875 C 1.054688 -2.421875 0.859375 -3.160156 0.859375 -4.015625 L 2.5 -4.015625 C 2.5 -3.191406 2.796875 -2.550781 3.390625 -2.09375 C 3.984375 -1.644531 4.726562 -1.421875 5.625 -1.421875 C 6.164062 -1.421875 6.660156 -1.507812 7.109375 -1.6875 C 7.554688 -1.875 7.910156 -2.132812 8.171875 -2.46875 C 8.429688 -2.8125 8.5625 -3.210938 8.5625 -3.671875 C 8.5625 -4.179688 8.40625 -4.570312 8.09375 -4.84375 C 7.789062 -5.125 7.390625 -5.34375 6.890625 -5.5 C 6.398438 -5.664062 5.878906 -5.8125 5.328125 -5.9375 C 4.816406 -6.0625 4.3125 -6.195312 3.8125 -6.34375 C 3.320312 -6.5 2.867188 -6.703125 2.453125 -6.953125 C 2.046875 -7.203125 1.71875 -7.535156 1.46875 -7.953125 C 1.21875 -8.367188 1.09375 -8.898438 1.09375 -9.546875 C 1.09375 -10.671875 1.492188 -11.550781 2.296875 -12.1875 C 3.109375 -12.832031 4.179688 -13.15625 5.515625 -13.15625 C 6.859375 -13.15625 7.914062 -12.804688 8.6875 -12.109375 C 9.46875 -11.421875 9.859375 -10.488281 9.859375 -9.3125 L 8.234375 -9.3125 C 8.234375 -10.03125 7.972656 -10.59375 7.453125 -11 C 6.941406 -11.40625 6.289062 -11.609375 5.5 -11.609375 C 4.707031 -11.609375 4.046875 -11.429688 3.515625 -11.078125 C 2.992188 -10.722656 2.734375 -10.234375 2.734375 -9.609375 C 2.734375 -9.128906 2.878906 -8.753906 3.171875 -8.484375 C 3.472656 -8.222656 3.859375 -8.015625 4.328125 -7.859375 C 4.804688 -7.703125 5.328125 -7.5625 5.890625 -7.4375 C 6.390625 -7.320312 6.894531 -7.179688 7.40625 -7.015625 C 7.925781 -6.859375 8.398438 -6.648438 8.828125 -6.390625 C 9.253906 -6.128906 9.59375 -5.78125 9.84375 -5.34375 C 10.101562 -4.914062 10.234375 -4.363281 10.234375 -3.6875 C 10.234375 -2.875 10.03125 -2.179688 9.625 -1.609375 C 9.21875 -1.035156 8.664062 -0.59375 7.96875 -0.28125 C 7.28125 0.0195312 6.503906 0.171875 5.640625 0.171875 Z M 5.640625 0.171875 "/></g></g><g style="fill:#202020;fill-opacity:1;"><g transform="translate(170.600178, 217.507799)"><path style="stroke:none" d="M 5.734375 -1.46875 L 6.828125 -1.46875 L 6.828125 0 L 5.53125 0 C 4.457031 0 3.609375 -0.3125 2.984375 -0.9375 C 2.367188 -1.5625 2.0625 -2.421875 2.0625 -3.515625 L 2.0625 -8.59375 L 0.296875 -8.59375 L 0.296875 -8.875 L 3.390625 -12.140625 L 3.640625 -12.140625 L 3.640625 -10.03125 L 6.78125 -10.03125 L 6.78125 -8.59375 L 3.640625 -8.59375 L 3.640625 -3.5625 C 3.640625 -2.882812 3.816406 -2.363281 4.171875 -2 C 4.535156 -1.644531 5.054688 -1.46875 5.734375 -1.46875 Z M 5.734375 -1.46875 "/></g></g><g style="fill:#202020;fill-opacity:1;"><g transform="translate(177.944063, 217.507799)"><path style="stroke:none" d="M 6.109375 0.21875 C 5.085938 0.21875 4.175781 -0.0078125 3.375 -0.46875 C 2.582031 -0.925781 1.953125 -1.546875 1.484375 -2.328125 C 1.023438 -3.117188 0.796875 -4.015625 0.796875 -5.015625 C 0.796875 -6.015625 1.023438 -6.910156 1.484375 -7.703125 C 1.953125 -8.492188 2.582031 -9.113281 3.375 -9.5625 C 4.175781 -10.019531 5.085938 -10.25 6.109375 -10.25 C 7.117188 -10.25 8.023438 -10.019531 8.828125 -9.5625 C 9.640625 -9.101562 10.273438 -8.476562 10.734375 -7.6875 C 11.203125 -6.90625 11.4375 -6.015625 11.4375 -5.015625 C 11.4375 -4.015625 11.203125 -3.117188 10.734375 -2.328125 C 10.273438 -1.546875 9.640625 -0.925781 8.828125 -0.46875 C 8.023438 -0.0078125 7.117188 0.21875 6.109375 0.21875 Z M 6.109375 -1.296875 C 6.828125 -1.296875 7.460938 -1.457031 8.015625 -1.78125 C 8.578125 -2.101562 9.015625 -2.539062 9.328125 -3.09375 C 9.648438 -3.65625 9.8125 -4.296875 9.8125 -5.015625 C 9.8125 -5.734375 9.648438 -6.367188 9.328125 -6.921875 C 9.015625 -7.484375 8.578125 -7.921875 8.015625 -8.234375 C 7.460938 -8.554688 6.828125 -8.71875 6.109375 -8.71875 C 5.390625 -8.71875 4.75 -8.554688 4.1875 -8.234375 C 3.632812 -7.921875 3.195312 -7.484375 2.875 -6.921875 C 2.5625 -6.367188 2.40625 -5.734375 2.40625 -5.015625 C 2.40625 -4.296875 2.5625 -3.65625 2.875 -3.09375 C 3.195312 -2.539062 3.640625 -2.101562 4.203125 -1.78125 C 4.765625 -1.457031 5.398438 -1.296875 6.109375 -1.296875 Z M 6.109375 -1.296875 "/></g></g><g style="fill:#202020;fill-opacity:1;"><g transform="translate(190.165316, 217.507799)"><path style="stroke:none" d="M 6.15625 -10.078125 L 7.046875 -10.078125 L 7.046875 -8.578125 L 6.03125 -8.578125 C 5.113281 -8.578125 4.40625 -8.296875 3.90625 -7.734375 C 3.414062 -7.179688 3.171875 -6.414062 3.171875 -5.4375 L 3.171875 0 L 1.59375 0 L 1.59375 -10.03125 L 2.703125 -10.03125 L 2.96875 -8.5 C 3.332031 -9.007812 3.773438 -9.398438 4.296875 -9.671875 C 4.828125 -9.941406 5.445312 -10.078125 6.15625 -10.078125 Z M 6.15625 -10.078125 "/></g></g><g style="fill:#202020;fill-opacity:1;"><g transform="translate(197.32374, 217.507799)"><path style="stroke:none" d="M 10.96875 -4.96875 C 10.96875 -4.875 10.960938 -4.78125 10.953125 -4.6875 C 10.941406 -4.59375 10.9375 -4.5 10.9375 -4.40625 L 2.375 -4.40625 C 2.5 -3.46875 2.878906 -2.71875 3.515625 -2.15625 C 4.160156 -1.59375 4.957031 -1.3125 5.90625 -1.3125 C 6.59375 -1.3125 7.207031 -1.46875 7.75 -1.78125 C 8.300781 -2.09375 8.734375 -2.519531 9.046875 -3.0625 L 10.6875 -3.0625 C 10.269531 -2.019531 9.640625 -1.210938 8.796875 -0.640625 C 7.953125 -0.0664062 6.988281 0.21875 5.90625 0.21875 C 4.9375 0.21875 4.066406 -0.0078125 3.296875 -0.46875 C 2.523438 -0.925781 1.914062 -1.550781 1.46875 -2.34375 C 1.019531 -3.132812 0.796875 -4.023438 0.796875 -5.015625 C 0.796875 -6.003906 1.019531 -6.894531 1.46875 -7.6875 C 1.914062 -8.476562 2.523438 -9.101562 3.296875 -9.5625 C 4.066406 -10.019531 4.9375 -10.25 5.90625 -10.25 C 6.914062 -10.25 7.800781 -10.007812 8.5625 -9.53125 C 9.320312 -9.0625 9.910156 -8.425781 10.328125 -7.625 C 10.753906 -6.832031 10.96875 -5.945312 10.96875 -4.96875 Z M 5.90625 -8.75 C 5 -8.75 4.234375 -8.484375 3.609375 -7.953125 C 2.984375 -7.429688 2.582031 -6.734375 2.40625 -5.859375 L 9.375 -5.859375 C 9.207031 -6.753906 8.804688 -7.457031 8.171875 -7.96875 C 7.546875 -8.488281 6.789062 -8.75 5.90625 -8.75 Z M 5.90625 -8.75 "/></g></g><g style="fill:#202020;fill-opacity:1;"><g transform="translate(118.723487, 196.674975)"><path style="stroke:none" d="M 10.59375 0 L 7.5 -5.4375 L 5.28125 -5.4375 L 5.28125 0 L 1.828125 0 L 1.828125 -15.953125 L 8.265625 -15.953125 C 9.328125 -15.953125 10.273438 -15.722656 11.109375 -15.265625 C 11.953125 -14.804688 12.613281 -14.179688 13.09375 -13.390625 C 13.582031 -12.597656 13.828125 -11.6875 13.828125 -10.65625 C 13.828125 -9.625 13.5625 -8.703125 13.03125 -7.890625 C 12.507812 -7.078125 11.8125 -6.457031 10.9375 -6.03125 L 14.46875 0 Z M 5.28125 -12.75 L 5.28125 -8.640625 L 8.046875 -8.640625 C 8.753906 -8.640625 9.3125 -8.832031 9.71875 -9.21875 C 10.132812 -9.601562 10.34375 -10.09375 10.34375 -10.6875 C 10.34375 -11.289062 10.132812 -11.785156 9.71875 -12.171875 C 9.3125 -12.554688 8.753906 -12.75 8.046875 -12.75 Z M 5.28125 -12.75 "/></g></g><g style="fill:#202020;fill-opacity:1;"><g transform="translate(133.773239, 196.674975)"><path style="stroke:none" d="M 11.640625 -12.328125 L 14.125 -12.328125 L 14.125 -0.015625 L 11.5 -0.015625 L 11.234375 -1.109375 C 10.703125 -0.660156 10.097656 -0.304688 9.421875 -0.046875 C 8.742188 0.210938 8.019531 0.34375 7.25 0.34375 C 6.019531 0.34375 4.914062 0.0625 3.9375 -0.5 C 2.96875 -1.070312 2.203125 -1.847656 1.640625 -2.828125 C 1.078125 -3.816406 0.796875 -4.929688 0.796875 -6.171875 C 0.796875 -7.398438 1.078125 -8.503906 1.640625 -9.484375 C 2.203125 -10.460938 2.96875 -11.234375 3.9375 -11.796875 C 4.914062 -12.359375 6.019531 -12.640625 7.25 -12.640625 C 8.03125 -12.640625 8.765625 -12.503906 9.453125 -12.234375 C 10.140625 -11.972656 10.75 -11.609375 11.28125 -11.140625 Z M 7.515625 -2.796875 C 8.148438 -2.796875 8.722656 -2.941406 9.234375 -3.234375 C 9.742188 -3.523438 10.140625 -3.921875 10.421875 -4.421875 C 10.710938 -4.929688 10.859375 -5.515625 10.859375 -6.171875 C 10.859375 -6.804688 10.710938 -7.378906 10.421875 -7.890625 C 10.140625 -8.398438 9.742188 -8.800781 9.234375 -9.09375 C 8.722656 -9.394531 8.148438 -9.546875 7.515625 -9.546875 C 6.859375 -9.546875 6.28125 -9.394531 5.78125 -9.09375 C 5.28125 -8.800781 4.882812 -8.398438 4.59375 -7.890625 C 4.3125 -7.378906 4.171875 -6.804688 4.171875 -6.171875 C 4.171875 -5.515625 4.3125 -4.9375 4.59375 -4.4375 C 4.882812 -3.9375 5.28125 -3.535156 5.78125 -3.234375 C 6.28125 -2.941406 6.859375 -2.796875 7.515625 -2.796875 Z M 7.515625 -2.796875 "/></g></g><g style="fill:#202020;fill-opacity:1;"><g transform="translate(149.483267, 196.674975)"><path style="stroke:none" d="M 5.96875 0.34375 C 4.9375 0.34375 4.03125 0.160156 3.25 -0.203125 C 2.476562 -0.566406 1.875 -1.078125 1.4375 -1.734375 C 1.007812 -2.398438 0.796875 -3.175781 0.796875 -4.0625 L 4.03125 -4.0625 C 4.050781 -3.507812 4.25 -3.097656 4.625 -2.828125 C 5 -2.554688 5.484375 -2.421875 6.078125 -2.421875 C 6.546875 -2.421875 6.957031 -2.519531 7.3125 -2.71875 C 7.664062 -2.925781 7.84375 -3.234375 7.84375 -3.640625 C 7.84375 -4.066406 7.609375 -4.367188 7.140625 -4.546875 C 6.679688 -4.722656 6.125 -4.863281 5.46875 -4.96875 C 4.976562 -5.039062 4.472656 -5.144531 3.953125 -5.28125 C 3.429688 -5.414062 2.945312 -5.613281 2.5 -5.875 C 2.0625 -6.132812 1.703125 -6.488281 1.421875 -6.9375 C 1.140625 -7.394531 1 -7.988281 1 -8.71875 C 1 -9.5 1.207031 -10.179688 1.625 -10.765625 C 2.039062 -11.359375 2.617188 -11.816406 3.359375 -12.140625 C 4.097656 -12.472656 4.96875 -12.640625 5.96875 -12.640625 C 6.957031 -12.640625 7.816406 -12.46875 8.546875 -12.125 C 9.285156 -11.789062 9.859375 -11.3125 10.265625 -10.6875 C 10.679688 -10.070312 10.890625 -9.359375 10.890625 -8.546875 L 7.71875 -8.546875 C 7.71875 -9.023438 7.554688 -9.382812 7.234375 -9.625 C 6.910156 -9.875 6.457031 -10 5.875 -10 C 5.363281 -10 4.960938 -9.890625 4.671875 -9.671875 C 4.378906 -9.453125 4.234375 -9.164062 4.234375 -8.8125 C 4.234375 -8.40625 4.460938 -8.125 4.921875 -7.96875 C 5.378906 -7.820312 5.925781 -7.695312 6.5625 -7.59375 C 7.0625 -7.5 7.578125 -7.382812 8.109375 -7.25 C 8.640625 -7.125 9.132812 -6.929688 9.59375 -6.671875 C 10.050781 -6.410156 10.421875 -6.050781 10.703125 -5.59375 C 10.984375 -5.144531 11.125 -4.546875 11.125 -3.796875 C 11.125 -2.960938 10.910156 -2.234375 10.484375 -1.609375 C 10.054688 -0.992188 9.453125 -0.515625 8.671875 -0.171875 C 7.898438 0.171875 7 0.34375 5.96875 0.34375 Z M 5.96875 0.34375 "/></g></g><g style="fill:#202020;fill-opacity:1;"><g transform="translate(161.436548, 196.674975)"><path style="stroke:none" d="M 8.640625 -12.59375 C 10.035156 -12.59375 11.132812 -12.128906 11.9375 -11.203125 C 12.738281 -10.273438 13.140625 -9.03125 13.140625 -7.46875 L 13.140625 0 L 9.8125 0 L 9.8125 -6.921875 C 9.8125 -7.835938 9.644531 -8.523438 9.3125 -8.984375 C 8.976562 -9.453125 8.429688 -9.6875 7.671875 -9.6875 C 6.859375 -9.6875 6.195312 -9.398438 5.6875 -8.828125 C 5.175781 -8.253906 4.921875 -7.46875 4.921875 -6.46875 L 4.921875 0 L 1.59375 0 L 1.59375 -16.75 L 4.921875 -16.75 L 4.921875 -11.15625 C 5.390625 -11.601562 5.941406 -11.953125 6.578125 -12.203125 C 7.222656 -12.460938 7.910156 -12.59375 8.640625 -12.59375 Z M 8.640625 -12.59375 "/></g></g><g style="fill:#202020;fill-opacity:1;"><g transform="translate(176.03094, 196.674975)"><path style="stroke:none" d="M 10.59375 0 L 7.5 -5.4375 L 5.28125 -5.4375 L 5.28125 0 L 1.828125 0 L 1.828125 -15.953125 L 8.265625 -15.953125 C 9.328125 -15.953125 10.273438 -15.722656 11.109375 -15.265625 C 11.953125 -14.804688 12.613281 -14.179688 13.09375 -13.390625 C 13.582031 -12.597656 13.828125 -11.6875 13.828125 -10.65625 C 13.828125 -9.625 13.5625 -8.703125 13.03125 -7.890625 C 12.507812 -7.078125 11.8125 -6.457031 10.9375 -6.03125 L 14.46875 0 Z M 5.28125 -12.75 L 5.28125 -8.640625 L 8.046875 -8.640625 C 8.753906 -8.640625 9.3125 -8.832031 9.71875 -9.21875 C 10.132812 -9.601562 10.34375 -10.09375 10.34375 -10.6875 C 10.34375 -11.289062 10.132812 -11.785156 9.71875 -12.171875 C 9.3125 -12.554688 8.753906 -12.75 8.046875 -12.75 Z M 5.28125 -12.75 "/></g></g><g style="fill:#202020;fill-opacity:1;"><g transform="translate(191.080692, 196.674975)"><path style="stroke:none" d="M 7.453125 0.34375 C 6.171875 0.34375 5.03125 0.0625 4.03125 -0.5 C 3.03125 -1.070312 2.238281 -1.847656 1.65625 -2.828125 C 1.082031 -3.816406 0.796875 -4.925781 0.796875 -6.15625 C 0.796875 -7.394531 1.082031 -8.503906 1.65625 -9.484375 C 2.238281 -10.460938 3.03125 -11.234375 4.03125 -11.796875 C 5.03125 -12.359375 6.171875 -12.640625 7.453125 -12.640625 C 8.710938 -12.640625 9.84375 -12.359375 10.84375 -11.796875 C 11.84375 -11.234375 12.628906 -10.460938 13.203125 -9.484375 C 13.785156 -8.503906 14.078125 -7.394531 14.078125 -6.15625 C 14.078125 -4.925781 13.785156 -3.816406 13.203125 -2.828125 C 12.628906 -1.847656 11.84375 -1.070312 10.84375 -0.5 C 9.84375 0.0625 8.710938 0.34375 7.453125 0.34375 Z M 7.453125 -2.78125 C 8.410156 -2.78125 9.191406 -3.085938 9.796875 -3.703125 C 10.398438 -4.328125 10.703125 -5.144531 10.703125 -6.15625 C 10.703125 -7.15625 10.398438 -7.960938 9.796875 -8.578125 C 9.191406 -9.203125 8.410156 -9.515625 7.453125 -9.515625 C 6.472656 -9.515625 5.679688 -9.203125 5.078125 -8.578125 C 4.472656 -7.960938 4.171875 -7.15625 4.171875 -6.15625 C 4.171875 -5.144531 4.472656 -4.328125 5.078125 -3.703125 C 5.679688 -3.085938 6.472656 -2.78125 7.453125 -2.78125 Z M 7.453125 -2.78125 "/></g></g><g style="fill:#202020;fill-opacity:1;"><g transform="translate(205.948298, 196.674975)"><path style="stroke:none" d="M 9.140625 -12.140625 L 9.140625 -9.390625 L 6.03125 -9.390625 L 6.03125 0 L 2.71875 0 L 2.71875 -9.390625 L 0.5625 -9.390625 L 0.5625 -12.140625 L 2.734375 -12.140625 L 2.734375 -13.265625 C 2.734375 -14.429688 3.054688 -15.363281 3.703125 -16.0625 C 4.359375 -16.757812 5.332031 -17.109375 6.625 -17.109375 L 9.109375 -17.109375 L 9.109375 -14.484375 L 7.296875 -14.484375 C 6.398438 -14.484375 5.953125 -14.046875 5.953125 -13.171875 L 5.953125 -12.140625 Z M 9.140625 -12.140625 "/></g></g><g style="fill:#202020;fill-opacity:1;"><g transform="translate(215.397082, 196.674975)"><path style="stroke:none" d="M 9.140625 -12.140625 L 9.140625 -9.390625 L 6.03125 -9.390625 L 6.03125 0 L 2.71875 0 L 2.71875 -9.390625 L 0.5625 -9.390625 L 0.5625 -12.140625 L 2.734375 -12.140625 L 2.734375 -13.265625 C 2.734375 -14.429688 3.054688 -15.363281 3.703125 -16.0625 C 4.359375 -16.757812 5.332031 -17.109375 6.625 -17.109375 L 9.109375 -17.109375 L 9.109375 -14.484375 L 7.296875 -14.484375 C 6.398438 -14.484375 5.953125 -14.046875 5.953125 -13.171875 L 5.953125 -12.140625 Z M 9.140625 -12.140625 "/></g></g><g style="fill:#202020;fill-opacity:1;"><g transform="translate(227.404034, 197.107605)"><path style="stroke:none" d="M 9.21875 -11.234375 C 10.539062 -10.941406 11.597656 -10.300781 12.390625 -9.3125 C 13.191406 -8.320312 13.59375 -7.117188 13.59375 -5.703125 C 13.59375 -4.546875 13.3125 -3.507812 12.75 -2.59375 C 12.195312 -1.6875 11.445312 -0.972656 10.5 -0.453125 C 9.550781 0.0664062 8.472656 0.328125 7.265625 0.328125 C 6.085938 0.328125 5.039062 0.078125 4.125 -0.421875 C 3.21875 -0.921875 2.5 -1.617188 1.96875 -2.515625 C 1.4375 -3.410156 1.144531 -4.445312 1.09375 -5.625 L 4.9375 -5.625 C 4.96875 -4.914062 5.191406 -4.34375 5.609375 -3.90625 C 6.035156 -3.46875 6.585938 -3.25 7.265625 -3.25 C 7.972656 -3.25 8.5625 -3.488281 9.03125 -3.96875 C 9.5 -4.445312 9.734375 -5.070312 9.734375 -5.84375 C 9.734375 -6.613281 9.484375 -7.21875 8.984375 -7.65625 C 8.484375 -8.09375 7.820312 -8.3125 7 -8.3125 L 4.421875 -8.3125 L 4.421875 -9.03125 L 7.65625 -14.390625 L 1.53125 -14.390625 L 1.53125 -17.8125 L 12.921875 -17.8125 L 12.921875 -17.09375 Z M 9.21875 -11.234375 "/></g></g><g style="fill:#202020;fill-opacity:1;"><g transform="translate(242.164783, 197.107605)"><path style="stroke:none" d="M 9.25 -18.75 C 10.625 -18.75 11.890625 -18.515625 13.046875 -18.046875 C 14.210938 -17.585938 15.21875 -16.9375 16.0625 -16.09375 C 16.914062 -15.257812 17.578125 -14.273438 18.046875 -13.140625 C 18.515625 -12.003906 18.75 -10.757812 18.75 -9.40625 C 18.75 -8.050781 18.515625 -6.800781 18.046875 -5.65625 C 17.578125 -4.507812 16.914062 -3.507812 16.0625 -2.65625 C 15.21875 -1.8125 14.210938 -1.15625 13.046875 -0.6875 C 11.890625 -0.226562 10.625 0 9.25 0 L 2.140625 0 L 2.140625 -18.75 Z M 9.140625 -3.78125 C 10.210938 -3.78125 11.15625 -4.019531 11.96875 -4.5 C 12.789062 -4.976562 13.4375 -5.640625 13.90625 -6.484375 C 14.375 -7.335938 14.609375 -8.3125 14.609375 -9.40625 C 14.609375 -10.5 14.375 -11.460938 13.90625 -12.296875 C 13.4375 -13.140625 12.789062 -13.796875 11.96875 -14.265625 C 11.15625 -14.742188 10.210938 -14.984375 9.140625 -14.984375 L 6.21875 -14.984375 L 6.21875 -3.78125 Z M 9.140625 -3.78125 "/></g></g><g clip-rule="nonzero" clip-path="url(#f0c8a889af)"><path style=" stroke:none;fill-rule:nonzero;fill:#202020;fill-opacity:1;" d="M 173.910156 159.519531 L 202.90625 159.519531 C 204.25 159.519531 205.390625 158.519531 205.570312 157.195312 L 209.105469 130.675781 C 209.105469 130.675781 209.105469 130.675781 209.105469 130.664062 C 209.699219 126.070312 213.640625 122.597656 218.277344 122.597656 L 218.972656 122.597656 C 219.921875 122.597656 220.683594 123.359375 220.683594 124.304688 C 220.683594 125.25 219.921875 126.015625 218.972656 126.015625 L 218.277344 126.015625 C 215.351562 126.015625 212.867188 128.203125 212.488281 131.109375 C 212.488281 131.109375 212.488281 131.109375 212.488281 131.121094 L 208.957031 157.640625 C 208.558594 160.660156 205.960938 162.941406 202.90625 162.941406 L 201.878906 162.941406 C 201.84375 165.425781 199.839844 167.429688 197.34375 167.429688 C 194.847656 167.429688 192.839844 165.425781 192.808594 162.941406 L 185.71875 162.941406 C 185.683594 165.425781 183.679688 167.429688 181.183594 167.429688 C 178.6875 167.429688 176.679688 165.425781 176.648438 162.941406 L 173.910156 162.941406 C 172.964844 162.941406 172.203125 162.175781 172.203125 161.230469 C 172.203125 160.285156 172.964844 159.519531 173.910156 159.519531 Z M 173.910156 159.519531 "/></g><path style=" stroke:none;fill-rule:nonzero;fill:#811c18;fill-opacity:1;" d="M 184.144531 130.449219 L 189.789062 129.765625 C 191.941406 133.207031 196.613281 139.132812 204.886719 142.664062 L 203.316406 154.414062 C 191.632812 147.679688 185.980469 135.269531 184.144531 130.449219 Z M 184.144531 130.449219 "/><path style=" stroke:none;fill-rule:nonzero;fill:#f4c02c;fill-opacity:1;" d="M 180.648438 130.871094 C 182.253906 135.453125 188.03125 149.421875 201.105469 157.128906 L 183.164062 157.128906 C 177.148438 146.609375 175.667969 135.109375 175.324219 131.507812 Z M 180.648438 130.871094 "/><path style=" stroke:none;fill-rule:nonzero;fill:#f4c02c;fill-opacity:1;" d="M 205.367188 139.132812 C 199.417969 136.363281 195.667969 132.25 193.59375 129.308594 L 204.707031 127.976562 C 205.230469 127.90625 205.753906 128.101562 206.128906 128.476562 C 206.507812 128.851562 206.675781 129.378906 206.609375 129.902344 Z M 205.367188 139.132812 "/><g clip-rule="nonzero" clip-path="url(#50bf2583cc)"><path style=" stroke:none;fill-rule:nonzero;fill:#811c18;fill-opacity:1;" d="M 164.03125 133.378906 C 164.316406 133.011719 164.726562 132.785156 165.183594 132.726562 L 171.941406 131.917969 C 172.28125 135.738281 173.683594 146.597656 179.257812 157.128906 L 172.214844 157.128906 C 169.066406 157.128906 166.378906 154.78125 165.96875 151.65625 L 163.710938 134.652344 C 163.621094 134.199219 163.746094 133.742188 164.03125 133.378906 Z M 164.03125 133.378906 "/></g><g style="fill:#ffffff;fill-opacity:1;"><g transform="translate(160.078602, 155.135513)"><path style="stroke:none" d="M 11.125 0 L 7.875 -5.71875 L 5.546875 -5.71875 L 5.546875 0 L 1.90625 0 L 1.90625 -16.75 L 8.6875 -16.75 C 9.800781 -16.75 10.796875 -16.507812 11.671875 -16.03125 C 12.546875 -15.550781 13.238281 -14.894531 13.75 -14.0625 C 14.257812 -13.238281 14.515625 -12.285156 14.515625 -11.203125 C 14.515625 -10.109375 14.238281 -9.132812 13.6875 -8.28125 C 13.144531 -7.4375 12.410156 -6.789062 11.484375 -6.34375 L 15.1875 0 Z M 5.546875 -13.390625 L 5.546875 -9.0625 L 8.4375 -9.0625 C 9.1875 -9.0625 9.773438 -9.265625 10.203125 -9.671875 C 10.640625 -10.078125 10.859375 -10.59375 10.859375 -11.21875 C 10.859375 -11.851562 10.640625 -12.375 10.203125 -12.78125 C 9.773438 -13.1875 9.1875 -13.390625 8.4375 -13.390625 Z M 5.546875 -13.390625 "/></g></g><g style="fill:#ffffff;fill-opacity:1;"><g transform="translate(175.884496, 155.135513)"><path style="stroke:none" d="M 11.125 0 L 7.875 -5.71875 L 5.546875 -5.71875 L 5.546875 0 L 1.90625 0 L 1.90625 -16.75 L 8.6875 -16.75 C 9.800781 -16.75 10.796875 -16.507812 11.671875 -16.03125 C 12.546875 -15.550781 13.238281 -14.894531 13.75 -14.0625 C 14.257812 -13.238281 14.515625 -12.285156 14.515625 -11.203125 C 14.515625 -10.109375 14.238281 -9.132812 13.6875 -8.28125 C 13.144531 -7.4375 12.410156 -6.789062 11.484375 -6.34375 L 15.1875 0 Z M 5.546875 -13.390625 L 5.546875 -9.0625 L 8.4375 -9.0625 C 9.1875 -9.0625 9.773438 -9.265625 10.203125 -9.671875 C 10.640625 -10.078125 10.859375 -10.59375 10.859375 -11.21875 C 10.859375 -11.851562 10.640625 -12.375 10.203125 -12.78125 C 9.773438 -13.1875 9.1875 -13.390625 8.4375 -13.390625 Z M 5.546875 -13.390625 "/></g></g><g style="fill:#ffffff;fill-opacity:1;"><g transform="translate(191.690391, 155.135513)"><path style="stroke:none" d="M 8.234375 -10.015625 C 9.410156 -9.765625 10.351562 -9.195312 11.0625 -8.3125 C 11.769531 -7.425781 12.125 -6.351562 12.125 -5.09375 C 12.125 -4.0625 11.875 -3.132812 11.375 -2.3125 C 10.882812 -1.5 10.21875 -0.863281 9.375 -0.40625 C 8.53125 0.0507812 7.566406 0.28125 6.484375 0.28125 C 5.429688 0.28125 4.5 0.0625 3.6875 -0.375 C 2.875 -0.820312 2.226562 -1.441406 1.75 -2.234375 C 1.28125 -3.035156 1.023438 -3.96875 0.984375 -5.03125 L 4.40625 -5.03125 C 4.4375 -4.382812 4.640625 -3.863281 5.015625 -3.46875 C 5.390625 -3.082031 5.878906 -2.890625 6.484375 -2.890625 C 7.117188 -2.890625 7.644531 -3.101562 8.0625 -3.53125 C 8.476562 -3.96875 8.6875 -4.53125 8.6875 -5.21875 C 8.6875 -5.90625 8.460938 -6.441406 8.015625 -6.828125 C 7.566406 -7.222656 6.976562 -7.421875 6.25 -7.421875 L 3.953125 -7.421875 L 3.953125 -8.0625 L 6.84375 -12.84375 L 1.359375 -12.84375 L 1.359375 -15.90625 L 11.53125 -15.90625 L 11.53125 -15.265625 Z M 8.234375 -10.015625 "/></g></g><g clip-rule="nonzero" clip-path="url(#e456d2ad37)"><g clip-rule="nonzero" clip-path="url(#cd4cfbb731)"><path style=" stroke:none;fill-rule:nonzero;fill:#202020;fill-opacity:1;" d="M 176.359375 159.886719 L 185.84375 159.886719 L 185.84375 169.371094 L 176.359375 169.371094 Z M 176.359375 159.886719 "/></g></g><g clip-rule="nonzero" clip-path="url(#225d96d13e)"><g clip-rule="nonzero" clip-path="url(#bdc83e62d6)"><path style=" stroke:none;fill-rule:nonzero;fill:#202020;fill-opacity:1;" d="M 192.757812 159.886719 L 202.242188 159.886719 L 202.242188 169.371094 L 192.757812 169.371094 Z M 192.757812 159.886719 "/></g></g></g></svg>