<svg xmlns="http://www.w3.org/2000/svg" xmlns:xlink="http://www.w3.org/1999/xlink" width="500" zoomAndPan="magnify" viewBox="0 0 375 374.999991" height="500" preserveAspectRatio="xMidYMid meet" version="1.2"><defs><clipPath id="6c2f169b19"><path d="M 135 58.558594 L 259.664062 58.558594 L 259.664062 172.558594 L 135 172.558594 Z M 135 58.558594 "/></clipPath><clipPath id="35474a66a5"><path d="M 146.53125 153.332031 L 170.640625 153.332031 L 170.640625 177.445312 L 146.53125 177.445312 Z M 146.53125 153.332031 "/></clipPath><clipPath id="c20d3c8842"><path d="M 158.585938 153.332031 C 151.929688 153.332031 146.53125 158.730469 146.53125 165.390625 C 146.53125 172.046875 151.929688 177.445312 158.585938 177.445312 C 165.246094 177.445312 170.640625 172.046875 170.640625 165.390625 C 170.640625 158.730469 165.246094 153.332031 158.585938 153.332031 Z M 158.585938 153.332031 "/></clipPath><clipPath id="ab57fa9bf0"><path d="M 188.21875 153.332031 L 212.328125 153.332031 L 212.328125 177.445312 L 188.21875 177.445312 Z M 188.21875 153.332031 "/></clipPath><clipPath id="d39f90b9be"><path d="M 200.273438 153.332031 C 193.613281 153.332031 188.21875 158.730469 188.21875 165.390625 C 188.21875 172.046875 193.613281 177.445312 200.273438 177.445312 C 206.929688 177.445312 212.328125 172.046875 212.328125 165.390625 C 212.328125 158.730469 206.929688 153.332031 200.273438 153.332031 Z M 200.273438 153.332031 "/></clipPath></defs><g id="fa8c72d647"><g style="fill:#202020;fill-opacity:1;"><g transform="translate(118.902119, 304.47209)"><path style="stroke:none" d="M 15.203125 0.453125 C 12.628906 0.453125 10.375 -0.00390625 8.4375 -0.921875 C 6.507812 -1.835938 5.003906 -3.132812 3.921875 -4.8125 C 2.835938 -6.5 2.296875 -8.492188 2.296875 -10.796875 L 6.75 -10.796875 C 6.75 -8.597656 7.546875 -6.890625 9.140625 -5.671875 C 10.742188 -4.453125 12.75 -3.84375 15.15625 -3.84375 C 16.613281 -3.84375 17.941406 -4.082031 19.140625 -4.5625 C 20.347656 -5.050781 21.300781 -5.753906 22 -6.671875 C 22.695312 -7.585938 23.046875 -8.664062 23.046875 -9.90625 C 23.046875 -11.269531 22.632812 -12.328125 21.8125 -13.078125 C 21 -13.828125 19.925781 -14.414062 18.59375 -14.84375 C 17.257812 -15.28125 15.84375 -15.664062 14.34375 -16 C 12.976562 -16.332031 11.628906 -16.695312 10.296875 -17.09375 C 8.960938 -17.5 7.738281 -18.039062 6.625 -18.71875 C 5.507812 -19.40625 4.617188 -20.304688 3.953125 -21.421875 C 3.285156 -22.535156 2.953125 -23.960938 2.953125 -25.703125 C 2.953125 -28.734375 4.035156 -31.113281 6.203125 -32.84375 C 8.367188 -34.582031 11.25 -35.453125 14.84375 -35.453125 C 18.476562 -35.453125 21.335938 -34.515625 23.421875 -32.640625 C 25.503906 -30.773438 26.546875 -28.257812 26.546875 -25.09375 L 22.203125 -25.09375 C 22.203125 -27.03125 21.5 -28.539062 20.09375 -29.625 C 18.695312 -30.707031 16.929688 -31.25 14.796875 -31.25 C 12.660156 -31.25 10.882812 -30.773438 9.46875 -29.828125 C 8.050781 -28.878906 7.34375 -27.570312 7.34375 -25.90625 C 7.34375 -24.601562 7.742188 -23.59375 8.546875 -22.875 C 9.347656 -22.15625 10.390625 -21.585938 11.671875 -21.171875 C 12.953125 -20.753906 14.34375 -20.378906 15.84375 -20.046875 C 17.21875 -19.710938 18.59375 -19.328125 19.96875 -18.890625 C 21.351562 -18.460938 22.617188 -17.898438 23.765625 -17.203125 C 24.921875 -16.503906 25.835938 -15.570312 26.515625 -14.40625 C 27.203125 -13.238281 27.546875 -11.753906 27.546875 -9.953125 C 27.546875 -7.753906 27.003906 -5.878906 25.921875 -4.328125 C 24.835938 -2.773438 23.363281 -1.585938 21.5 -0.765625 C 19.632812 0.046875 17.535156 0.453125 15.203125 0.453125 Z M 15.203125 0.453125 "/></g></g><g style="fill:#202020;fill-opacity:1;"><g transform="translate(148.747496, 304.47209)"><path style="stroke:none" d="M 15.453125 -3.953125 L 18.40625 -3.953125 L 18.40625 0 L 14.90625 0 C 12 0 9.710938 -0.835938 8.046875 -2.515625 C 6.378906 -4.203125 5.546875 -6.515625 5.546875 -9.453125 L 5.546875 -23.15625 L 0.796875 -23.15625 L 0.796875 -23.90625 L 9.15625 -32.703125 L 9.796875 -32.703125 L 9.796875 -27 L 18.25 -27 L 18.25 -23.15625 L 9.796875 -23.15625 L 9.796875 -9.59375 C 9.796875 -7.757812 10.28125 -6.359375 11.25 -5.390625 C 12.21875 -4.429688 13.617188 -3.953125 15.453125 -3.953125 Z M 15.453125 -3.953125 "/></g></g><g style="fill:#202020;fill-opacity:1;"><g transform="translate(168.544435, 304.47209)"><path style="stroke:none" d="M 16.453125 0.59375 C 13.710938 0.59375 11.269531 -0.0195312 9.125 -1.25 C 6.976562 -2.476562 5.28125 -4.148438 4.03125 -6.265625 C 2.78125 -8.390625 2.15625 -10.800781 2.15625 -13.5 C 2.15625 -16.195312 2.78125 -18.613281 4.03125 -20.75 C 5.28125 -22.882812 6.976562 -24.554688 9.125 -25.765625 C 11.269531 -26.984375 13.710938 -27.59375 16.453125 -27.59375 C 19.179688 -27.59375 21.628906 -26.976562 23.796875 -25.75 C 25.960938 -24.519531 27.671875 -22.84375 28.921875 -20.71875 C 30.171875 -18.601562 30.796875 -16.195312 30.796875 -13.5 C 30.796875 -10.800781 30.171875 -8.390625 28.921875 -6.265625 C 27.671875 -4.148438 25.960938 -2.476562 23.796875 -1.25 C 21.628906 -0.0195312 19.179688 0.59375 16.453125 0.59375 Z M 16.453125 -3.5 C 18.378906 -3.5 20.09375 -3.929688 21.59375 -4.796875 C 23.09375 -5.660156 24.273438 -6.84375 25.140625 -8.34375 C 26.015625 -9.84375 26.453125 -11.5625 26.453125 -13.5 C 26.453125 -15.4375 26.015625 -17.15625 25.140625 -18.65625 C 24.273438 -20.15625 23.09375 -21.335938 21.59375 -22.203125 C 20.09375 -23.066406 18.378906 -23.5 16.453125 -23.5 C 14.515625 -23.5 12.796875 -23.066406 11.296875 -22.203125 C 9.796875 -21.335938 8.617188 -20.15625 7.765625 -18.65625 C 6.921875 -17.15625 6.5 -15.4375 6.5 -13.5 C 6.5 -11.5625 6.921875 -9.84375 7.765625 -8.34375 C 8.617188 -6.84375 9.800781 -5.660156 11.3125 -4.796875 C 12.832031 -3.929688 14.546875 -3.5 16.453125 -3.5 Z M 16.453125 -3.5 "/></g></g><g style="fill:#202020;fill-opacity:1;"><g transform="translate(201.48933, 304.47209)"><path style="stroke:none" d="M 16.59375 -27.15625 L 19 -27.15625 L 19 -23.09375 L 16.25 -23.09375 C 13.78125 -23.09375 11.878906 -22.34375 10.546875 -20.84375 C 9.210938 -19.34375 8.546875 -17.28125 8.546875 -14.65625 L 8.546875 0 L 4.296875 0 L 4.296875 -27 L 7.296875 -27 L 8 -22.90625 C 8.96875 -24.269531 10.160156 -25.316406 11.578125 -26.046875 C 12.992188 -26.785156 14.664062 -27.15625 16.59375 -27.15625 Z M 16.59375 -27.15625 "/></g></g><g style="fill:#202020;fill-opacity:1;"><g transform="translate(220.786345, 304.47209)"><path style="stroke:none" d="M 29.546875 -13.40625 C 29.546875 -13.132812 29.53125 -12.875 29.5 -12.625 C 29.46875 -12.375 29.453125 -12.113281 29.453125 -11.84375 L 6.40625 -11.84375 C 6.738281 -9.34375 7.769531 -7.332031 9.5 -5.8125 C 11.226562 -4.300781 13.363281 -3.546875 15.90625 -3.546875 C 17.769531 -3.546875 19.429688 -3.960938 20.890625 -4.796875 C 22.359375 -5.628906 23.507812 -6.78125 24.34375 -8.25 L 28.796875 -8.25 C 27.660156 -5.445312 25.957031 -3.269531 23.6875 -1.71875 C 21.425781 -0.175781 18.832031 0.59375 15.90625 0.59375 C 13.300781 0.59375 10.957031 -0.0195312 8.875 -1.25 C 6.789062 -2.476562 5.148438 -4.160156 3.953125 -6.296875 C 2.753906 -8.429688 2.15625 -10.832031 2.15625 -13.5 C 2.15625 -16.164062 2.753906 -18.566406 3.953125 -20.703125 C 5.148438 -22.835938 6.789062 -24.519531 8.875 -25.75 C 10.957031 -26.976562 13.300781 -27.59375 15.90625 -27.59375 C 18.632812 -27.59375 21.023438 -26.957031 23.078125 -25.6875 C 25.128906 -24.425781 26.71875 -22.71875 27.84375 -20.5625 C 28.976562 -18.414062 29.546875 -16.03125 29.546875 -13.40625 Z M 15.90625 -23.546875 C 13.46875 -23.546875 11.40625 -22.835938 9.71875 -21.421875 C 8.039062 -20.003906 6.96875 -18.128906 6.5 -15.796875 L 25.25 -15.796875 C 24.8125 -18.203125 23.742188 -20.09375 22.046875 -21.46875 C 20.347656 -22.851562 18.300781 -23.546875 15.90625 -23.546875 Z M 15.90625 -23.546875 "/></g></g><g style="fill:#202020;fill-opacity:1;"><g transform="translate(34.106047, 242.083724)"><path style="stroke:none" d="M 23.25 0 L 16.453125 -11.953125 L 11.59375 -11.953125 L 11.59375 0 L 4 0 L 4 -35 L 18.15625 -35 C 20.488281 -35 22.570312 -34.5 24.40625 -33.5 C 26.238281 -32.5 27.6875 -31.128906 28.75 -29.390625 C 29.8125 -27.660156 30.34375 -25.664062 30.34375 -23.40625 C 30.34375 -21.132812 29.769531 -19.109375 28.625 -17.328125 C 27.476562 -15.546875 25.9375 -14.1875 24 -13.25 L 31.75 0 Z M 11.59375 -28 L 11.59375 -18.953125 L 17.65625 -18.953125 C 19.21875 -18.953125 20.445312 -19.375 21.34375 -20.21875 C 22.25 -21.070312 22.703125 -22.148438 22.703125 -23.453125 C 22.703125 -24.785156 22.25 -25.875 21.34375 -26.71875 C 20.445312 -27.570312 19.21875 -28 17.65625 -28 Z M 11.59375 -28 "/></g></g><g style="fill:#202020;fill-opacity:1;"><g transform="translate(67.150929, 242.083724)"><path style="stroke:none" d="M 25.546875 -27.046875 L 31 -27.046875 L 31 -0.046875 L 25.25 -0.046875 L 24.65625 -2.453125 C 23.488281 -1.453125 22.160156 -0.664062 20.671875 -0.09375 C 19.191406 0.46875 17.601562 0.75 15.90625 0.75 C 13.195312 0.75 10.773438 0.125 8.640625 -1.125 C 6.515625 -2.375 4.832031 -4.070312 3.59375 -6.21875 C 2.363281 -8.375 1.75 -10.816406 1.75 -13.546875 C 1.75 -16.242188 2.363281 -18.664062 3.59375 -20.8125 C 4.832031 -22.96875 6.515625 -24.660156 8.640625 -25.890625 C 10.773438 -27.128906 13.195312 -27.75 15.90625 -27.75 C 17.632812 -27.75 19.25 -27.457031 20.75 -26.875 C 22.25 -26.289062 23.582031 -25.484375 24.75 -24.453125 Z M 16.5 -6.15625 C 17.894531 -6.15625 19.148438 -6.46875 20.265625 -7.09375 C 21.390625 -7.726562 22.265625 -8.601562 22.890625 -9.71875 C 23.523438 -10.84375 23.84375 -12.117188 23.84375 -13.546875 C 23.84375 -14.953125 23.523438 -16.210938 22.890625 -17.328125 C 22.265625 -18.441406 21.390625 -19.320312 20.265625 -19.96875 C 19.148438 -20.625 17.894531 -20.953125 16.5 -20.953125 C 15.0625 -20.953125 13.789062 -20.625 12.6875 -19.96875 C 11.59375 -19.320312 10.726562 -18.441406 10.09375 -17.328125 C 9.46875 -16.210938 9.15625 -14.953125 9.15625 -13.546875 C 9.15625 -12.117188 9.46875 -10.851562 10.09375 -9.75 C 10.726562 -8.644531 11.59375 -7.769531 12.6875 -7.125 C 13.789062 -6.476562 15.0625 -6.15625 16.5 -6.15625 Z M 16.5 -6.15625 "/></g></g><g style="fill:#202020;fill-opacity:1;"><g transform="translate(101.645593, 242.083724)"><path style="stroke:none" d="M 13.09375 0.75 C 10.832031 0.75 8.847656 0.347656 7.140625 -0.453125 C 5.441406 -1.253906 4.117188 -2.378906 3.171875 -3.828125 C 2.222656 -5.273438 1.75 -6.96875 1.75 -8.90625 L 8.84375 -8.90625 C 8.882812 -7.695312 9.320312 -6.789062 10.15625 -6.1875 C 10.988281 -5.59375 12.050781 -5.296875 13.34375 -5.296875 C 14.382812 -5.296875 15.285156 -5.519531 16.046875 -5.96875 C 16.816406 -6.425781 17.203125 -7.101562 17.203125 -8 C 17.203125 -8.9375 16.691406 -9.59375 15.671875 -9.96875 C 14.660156 -10.351562 13.4375 -10.664062 12 -10.90625 C 10.9375 -11.070312 9.828125 -11.300781 8.671875 -11.59375 C 7.523438 -11.894531 6.46875 -12.328125 5.5 -12.890625 C 4.53125 -13.460938 3.738281 -14.25 3.125 -15.25 C 2.507812 -16.25 2.203125 -17.550781 2.203125 -19.15625 C 2.203125 -20.851562 2.660156 -22.347656 3.578125 -23.640625 C 4.492188 -24.941406 5.757812 -25.953125 7.375 -26.671875 C 8.988281 -27.390625 10.894531 -27.75 13.09375 -27.75 C 15.257812 -27.75 17.148438 -27.375 18.765625 -26.625 C 20.390625 -25.875 21.648438 -24.820312 22.546875 -23.46875 C 23.453125 -22.125 23.90625 -20.550781 23.90625 -18.75 L 16.953125 -18.75 C 16.953125 -19.8125 16.59375 -20.609375 15.875 -21.140625 C 15.15625 -21.679688 14.164062 -21.953125 12.90625 -21.953125 C 11.769531 -21.953125 10.882812 -21.707031 10.25 -21.21875 C 9.613281 -20.738281 9.296875 -20.113281 9.296875 -19.34375 C 9.296875 -18.445312 9.796875 -17.832031 10.796875 -17.5 C 11.796875 -17.164062 13 -16.882812 14.40625 -16.65625 C 15.5 -16.445312 16.628906 -16.203125 17.796875 -15.921875 C 18.960938 -15.640625 20.046875 -15.210938 21.046875 -14.640625 C 22.046875 -14.078125 22.851562 -13.296875 23.46875 -12.296875 C 24.09375 -11.296875 24.40625 -9.976562 24.40625 -8.34375 C 24.40625 -6.507812 23.9375 -4.910156 23 -3.546875 C 22.0625 -2.179688 20.742188 -1.125 19.046875 -0.375 C 17.347656 0.375 15.363281 0.75 13.09375 0.75 Z M 13.09375 0.75 "/></g></g><g style="fill:#202020;fill-opacity:1;"><g transform="translate(127.891529, 242.083724)"><path style="stroke:none" d="M 18.953125 -27.65625 C 22.015625 -27.65625 24.425781 -26.632812 26.1875 -24.59375 C 27.957031 -22.5625 28.84375 -19.832031 28.84375 -16.40625 L 28.84375 0 L 21.546875 0 L 21.546875 -15.203125 C 21.546875 -17.203125 21.175781 -18.707031 20.4375 -19.71875 C 19.707031 -20.738281 18.507812 -21.25 16.84375 -21.25 C 15.050781 -21.25 13.59375 -20.625 12.46875 -19.375 C 11.351562 -18.125 10.796875 -16.398438 10.796875 -14.203125 L 10.796875 0 L 3.5 0 L 3.5 -36.75 L 10.796875 -36.75 L 10.796875 -24.5 C 11.828125 -25.46875 13.039062 -26.234375 14.4375 -26.796875 C 15.84375 -27.367188 17.347656 -27.65625 18.953125 -27.65625 Z M 18.953125 -27.65625 "/></g></g><g style="fill:#202020;fill-opacity:1;"><g transform="translate(159.936563, 242.083724)"><path style="stroke:none" d="M 23.25 0 L 16.453125 -11.953125 L 11.59375 -11.953125 L 11.59375 0 L 4 0 L 4 -35 L 18.15625 -35 C 20.488281 -35 22.570312 -34.5 24.40625 -33.5 C 26.238281 -32.5 27.6875 -31.128906 28.75 -29.390625 C 29.8125 -27.660156 30.34375 -25.664062 30.34375 -23.40625 C 30.34375 -21.132812 29.769531 -19.109375 28.625 -17.328125 C 27.476562 -15.546875 25.9375 -14.1875 24 -13.25 L 31.75 0 Z M 11.59375 -28 L 11.59375 -18.953125 L 17.65625 -18.953125 C 19.21875 -18.953125 20.445312 -19.375 21.34375 -20.21875 C 22.25 -21.070312 22.703125 -22.148438 22.703125 -23.453125 C 22.703125 -24.785156 22.25 -25.875 21.34375 -26.71875 C 20.445312 -27.570312 19.21875 -28 17.65625 -28 Z M 11.59375 -28 "/></g></g><g style="fill:#202020;fill-opacity:1;"><g transform="translate(192.981445, 242.083724)"><path style="stroke:none" d="M 16.34375 0.75 C 13.550781 0.75 11.050781 0.125 8.84375 -1.125 C 6.644531 -2.375 4.910156 -4.070312 3.640625 -6.21875 C 2.378906 -8.375 1.75 -10.800781 1.75 -13.5 C 1.75 -16.226562 2.378906 -18.664062 3.640625 -20.8125 C 4.910156 -22.96875 6.644531 -24.660156 8.84375 -25.890625 C 11.050781 -27.128906 13.550781 -27.75 16.34375 -27.75 C 19.113281 -27.75 21.597656 -27.128906 23.796875 -25.890625 C 25.992188 -24.660156 27.726562 -22.96875 29 -20.8125 C 30.269531 -18.664062 30.90625 -16.226562 30.90625 -13.5 C 30.90625 -10.800781 30.269531 -8.375 29 -6.21875 C 27.726562 -4.070312 25.992188 -2.375 23.796875 -1.125 C 21.597656 0.125 19.113281 0.75 16.34375 0.75 Z M 16.34375 -6.09375 C 18.445312 -6.09375 20.164062 -6.773438 21.5 -8.140625 C 22.832031 -9.515625 23.5 -11.300781 23.5 -13.5 C 23.5 -15.695312 22.832031 -17.476562 21.5 -18.84375 C 20.164062 -20.21875 18.445312 -20.90625 16.34375 -20.90625 C 14.21875 -20.90625 12.488281 -20.21875 11.15625 -18.84375 C 9.820312 -17.476562 9.15625 -15.695312 9.15625 -13.5 C 9.15625 -11.300781 9.820312 -9.515625 11.15625 -8.140625 C 12.488281 -6.773438 14.21875 -6.09375 16.34375 -6.09375 Z M 16.34375 -6.09375 "/></g></g><g style="fill:#202020;fill-opacity:1;"><g transform="translate(225.626389, 242.083724)"><path style="stroke:none" d="M 20.046875 -26.65625 L 20.046875 -20.59375 L 13.25 -20.59375 L 13.25 0 L 5.953125 0 L 5.953125 -20.59375 L 1.25 -20.59375 L 1.25 -26.65625 L 6 -26.65625 L 6 -29.09375 C 6 -31.664062 6.710938 -33.71875 8.140625 -35.25 C 9.578125 -36.78125 11.710938 -37.546875 14.546875 -37.546875 L 20 -37.546875 L 20 -31.796875 L 16 -31.796875 C 14.03125 -31.796875 13.046875 -30.832031 13.046875 -28.90625 L 13.046875 -26.65625 Z M 20.046875 -26.65625 "/></g></g><g style="fill:#202020;fill-opacity:1;"><g transform="translate(246.373176, 242.083724)"><path style="stroke:none" d="M 20.046875 -26.65625 L 20.046875 -20.59375 L 13.25 -20.59375 L 13.25 0 L 5.953125 0 L 5.953125 -20.59375 L 1.25 -20.59375 L 1.25 -26.65625 L 6 -26.65625 L 6 -29.09375 C 6 -31.664062 6.710938 -33.71875 8.140625 -35.25 C 9.578125 -36.78125 11.710938 -37.546875 14.546875 -37.546875 L 20 -37.546875 L 20 -31.796875 L 16 -31.796875 C 14.03125 -31.796875 13.046875 -30.832031 13.046875 -28.90625 L 13.046875 -26.65625 Z M 20.046875 -26.65625 "/></g></g><g style="fill:#202020;fill-opacity:1;"><g transform="translate(275.040807, 242.083724)"><path style="stroke:none" d="M 17.203125 -20.953125 C 19.671875 -20.421875 21.644531 -19.226562 23.125 -17.375 C 24.601562 -15.519531 25.34375 -13.28125 25.34375 -10.65625 C 25.34375 -8.488281 24.828125 -6.550781 23.796875 -4.84375 C 22.765625 -3.144531 21.363281 -1.8125 19.59375 -0.84375 C 17.832031 0.113281 15.816406 0.59375 13.546875 0.59375 C 11.347656 0.59375 9.398438 0.128906 7.703125 -0.796875 C 6.003906 -1.734375 4.660156 -3.035156 3.671875 -4.703125 C 2.691406 -6.367188 2.148438 -8.300781 2.046875 -10.5 L 9.203125 -10.5 C 9.265625 -9.164062 9.6875 -8.085938 10.46875 -7.265625 C 11.257812 -6.453125 12.285156 -6.046875 13.546875 -6.046875 C 14.878906 -6.046875 15.976562 -6.492188 16.84375 -7.390625 C 17.71875 -8.296875 18.15625 -9.46875 18.15625 -10.90625 C 18.15625 -12.332031 17.6875 -13.453125 16.75 -14.265625 C 15.8125 -15.085938 14.578125 -15.5 13.046875 -15.5 L 8.25 -15.5 L 8.25 -16.84375 L 14.296875 -26.84375 L 2.84375 -26.84375 L 2.84375 -33.25 L 24.09375 -33.25 L 24.09375 -31.90625 Z M 17.203125 -20.953125 "/></g></g><g style="fill:#202020;fill-opacity:1;"><g transform="translate(302.58654, 242.083724)"><path style="stroke:none" d="M 17.25 -35 C 19.8125 -35 22.175781 -34.566406 24.34375 -33.703125 C 26.507812 -32.835938 28.382812 -31.617188 29.96875 -30.046875 C 31.550781 -28.484375 32.785156 -26.640625 33.671875 -24.515625 C 34.554688 -22.398438 35 -20.078125 35 -17.546875 C 35 -15.015625 34.554688 -12.679688 33.671875 -10.546875 C 32.785156 -8.410156 31.550781 -6.550781 29.96875 -4.96875 C 28.382812 -3.382812 26.507812 -2.160156 24.34375 -1.296875 C 22.175781 -0.429688 19.8125 0 17.25 0 L 4 0 L 4 -35 Z M 17.046875 -7.046875 C 19.046875 -7.046875 20.8125 -7.492188 22.34375 -8.390625 C 23.882812 -9.296875 25.085938 -10.539062 25.953125 -12.125 C 26.816406 -13.707031 27.25 -15.515625 27.25 -17.546875 C 27.25 -19.578125 26.816406 -21.375 25.953125 -22.9375 C 25.085938 -24.507812 23.882812 -25.738281 22.34375 -26.625 C 20.8125 -27.507812 19.046875 -27.953125 17.046875 -27.953125 L 11.59375 -27.953125 L 11.59375 -7.046875 Z M 17.046875 -7.046875 "/></g></g><g clip-rule="nonzero" clip-path="url(#6c2f169b19)"><path style=" stroke:none;fill-rule:nonzero;fill:#202020;fill-opacity:1;" d="M 140.308594 152.410156 L 214.019531 152.410156 C 217.4375 152.410156 220.335938 149.859375 220.800781 146.5 L 229.78125 79.074219 C 229.78125 79.074219 229.78125 79.074219 229.78125 79.046875 C 231.289062 67.367188 241.3125 58.53125 253.105469 58.53125 L 254.875 58.53125 C 257.277344 58.53125 259.21875 60.472656 259.21875 62.878906 C 259.21875 65.28125 257.277344 67.222656 254.875 67.222656 L 253.105469 67.222656 C 245.660156 67.222656 239.34375 72.785156 238.386719 80.175781 C 238.386719 80.175781 238.386719 80.175781 238.386719 80.203125 L 229.40625 147.628906 C 228.390625 155.308594 221.785156 161.101562 214.019531 161.101562 L 211.410156 161.101562 C 211.324219 167.417969 206.226562 172.519531 199.878906 172.519531 C 193.535156 172.519531 188.433594 167.417969 188.347656 161.101562 L 170.324219 161.101562 C 170.238281 167.417969 165.140625 172.519531 158.792969 172.519531 C 152.449219 172.519531 147.347656 167.417969 147.261719 161.101562 L 140.308594 161.101562 C 137.902344 161.101562 135.960938 159.160156 135.960938 156.757812 C 135.960938 154.351562 137.902344 152.410156 140.308594 152.410156 Z M 140.308594 152.410156 "/></g><path style=" stroke:none;fill-rule:nonzero;fill:#811c18;fill-opacity:1;" d="M 166.328125 78.496094 L 180.667969 76.757812 C 186.144531 85.507812 198.027344 100.574219 219.0625 109.554688 L 215.0625 139.429688 C 185.363281 122.304688 170.992188 90.75 166.328125 78.496094 Z M 166.328125 78.496094 "/><path style=" stroke:none;fill-rule:nonzero;fill:#f4c02c;fill-opacity:1;" d="M 157.433594 79.566406 C 161.515625 91.214844 176.207031 126.738281 209.441406 146.324219 L 163.835938 146.324219 C 148.535156 119.582031 144.769531 90.347656 143.902344 81.191406 Z M 157.433594 79.566406 "/><path style=" stroke:none;fill-rule:nonzero;fill:#f4c02c;fill-opacity:1;" d="M 220.277344 100.574219 C 205.152344 93.53125 195.621094 83.074219 190.347656 75.597656 L 218.597656 72.207031 C 219.929688 72.035156 221.261719 72.527344 222.21875 73.484375 C 223.175781 74.4375 223.609375 75.769531 223.4375 77.105469 Z M 220.277344 100.574219 "/><path style=" stroke:none;fill-rule:nonzero;fill:#811c18;fill-opacity:1;" d="M 115.1875 85.941406 C 115.910156 85.015625 116.953125 84.433594 118.113281 84.289062 L 135.296875 82.234375 C 136.164062 91.9375 139.726562 119.550781 153.898438 146.324219 L 135.992188 146.324219 C 127.992188 146.324219 121.15625 140.355469 120.113281 132.417969 L 114.375 89.1875 C 114.144531 88.027344 114.460938 86.867188 115.1875 85.941406 Z M 115.1875 85.941406 "/><g style="fill:#ffffff;fill-opacity:1;"><g transform="translate(105.136982, 132.740535)"><path style="stroke:none" d="M 23.25 0 L 16.453125 -11.953125 L 11.59375 -11.953125 L 11.59375 0 L 4 0 L 4 -35 L 18.15625 -35 C 20.488281 -35 22.570312 -34.5 24.40625 -33.5 C 26.238281 -32.5 27.6875 -31.128906 28.75 -29.390625 C 29.8125 -27.660156 30.34375 -25.664062 30.34375 -23.40625 C 30.34375 -21.132812 29.769531 -19.109375 28.625 -17.328125 C 27.476562 -15.546875 25.9375 -14.1875 24 -13.25 L 31.75 0 Z M 11.59375 -28 L 11.59375 -18.953125 L 17.65625 -18.953125 C 19.21875 -18.953125 20.445312 -19.375 21.34375 -20.21875 C 22.25 -21.070312 22.703125 -22.148438 22.703125 -23.453125 C 22.703125 -24.785156 22.25 -25.875 21.34375 -26.71875 C 20.445312 -27.570312 19.21875 -28 17.65625 -28 Z M 11.59375 -28 "/></g></g><g style="fill:#ffffff;fill-opacity:1;"><g transform="translate(138.181864, 132.740535)"><path style="stroke:none" d="M 23.25 0 L 16.453125 -11.953125 L 11.59375 -11.953125 L 11.59375 0 L 4 0 L 4 -35 L 18.15625 -35 C 20.488281 -35 22.570312 -34.5 24.40625 -33.5 C 26.238281 -32.5 27.6875 -31.128906 28.75 -29.390625 C 29.8125 -27.660156 30.34375 -25.664062 30.34375 -23.40625 C 30.34375 -21.132812 29.769531 -19.109375 28.625 -17.328125 C 27.476562 -15.546875 25.9375 -14.1875 24 -13.25 L 31.75 0 Z M 11.59375 -28 L 11.59375 -18.953125 L 17.65625 -18.953125 C 19.21875 -18.953125 20.445312 -19.375 21.34375 -20.21875 C 22.25 -21.070312 22.703125 -22.148438 22.703125 -23.453125 C 22.703125 -24.785156 22.25 -25.875 21.34375 -26.71875 C 20.445312 -27.570312 19.21875 -28 17.65625 -28 Z M 11.59375 -28 "/></g></g><g style="fill:#ffffff;fill-opacity:1;"><g transform="translate(171.226746, 132.740535)"><path style="stroke:none" d="M 17.203125 -20.953125 C 19.671875 -20.421875 21.644531 -19.226562 23.125 -17.375 C 24.601562 -15.519531 25.34375 -13.28125 25.34375 -10.65625 C 25.34375 -8.488281 24.828125 -6.550781 23.796875 -4.84375 C 22.765625 -3.144531 21.363281 -1.8125 19.59375 -0.84375 C 17.832031 0.113281 15.816406 0.59375 13.546875 0.59375 C 11.347656 0.59375 9.398438 0.128906 7.703125 -0.796875 C 6.003906 -1.734375 4.660156 -3.035156 3.671875 -4.703125 C 2.691406 -6.367188 2.148438 -8.300781 2.046875 -10.5 L 9.203125 -10.5 C 9.265625 -9.164062 9.6875 -8.085938 10.46875 -7.265625 C 11.257812 -6.453125 12.285156 -6.046875 13.546875 -6.046875 C 14.878906 -6.046875 15.976562 -6.492188 16.84375 -7.390625 C 17.71875 -8.296875 18.15625 -9.46875 18.15625 -10.90625 C 18.15625 -12.332031 17.6875 -13.453125 16.75 -14.265625 C 15.8125 -15.085938 14.578125 -15.5 13.046875 -15.5 L 8.25 -15.5 L 8.25 -16.84375 L 14.296875 -26.84375 L 2.84375 -26.84375 L 2.84375 -33.25 L 24.09375 -33.25 L 24.09375 -31.90625 Z M 17.203125 -20.953125 "/></g></g><g clip-rule="nonzero" clip-path="url(#35474a66a5)"><g clip-rule="nonzero" clip-path="url(#c20d3c8842)"><path style=" stroke:none;fill-rule:nonzero;fill:#202020;fill-opacity:1;" d="M 146.53125 153.332031 L 170.640625 153.332031 L 170.640625 177.445312 L 146.53125 177.445312 Z M 146.53125 153.332031 "/></g></g><g clip-rule="nonzero" clip-path="url(#ab57fa9bf0)"><g clip-rule="nonzero" clip-path="url(#d39f90b9be)"><path style=" stroke:none;fill-rule:nonzero;fill:#202020;fill-opacity:1;" d="M 188.21875 153.332031 L 212.328125 153.332031 L 212.328125 177.445312 L 188.21875 177.445312 Z M 188.21875 153.332031 "/></g></g></g></svg>